# xmcd
#
# Track frame offsets: 
#        150
#        10536
#        28235
#        76571
#        95966
#        118695
#        138428
#        153518
#        193336
#
# Disc length: 2791 seconds
#
# Revision: 1
# Processed by: cddbd v1.5.1PL2 Copyright (c) Steve Scherf et al.
# Submitted via: ExactAudioCopy v0.95a4
#
DISCID=700ae509
DTITLE=Baptiste Trotignon - Solo II
DYEAR=2005
DGENRE=Jazz
TTITLE0=Como tu me voi
TTITLE1=Ostea
TTITLE2=Music for a while
TTITLE3=Home 
TTITLE4=3 for 2
TTITLE5=MMM
TTITLE6=Love me tender
TTITLE7=Rouge master
TTITLE8=Julia
EXTD=YEAR: 2005
EXTT0=
EXTT1=
EXTT2=
EXTT3=
EXTT4=
EXTT5=
EXTT6=
EXTT7=
EXTT8=
PLAYORDER=
